<svg width="21" height="21" viewBox="0 0 21 21" fill="none" xmlns="http://www.w3.org/2000/svg">
<path fill-rule="evenodd" clip-rule="evenodd" d="M12.8292 12.8292C14.9398 10.7186 14.9398 7.29659 12.8292 5.18598C10.7186 3.07538 7.29659 3.07538 5.18598 5.18598C3.07538 7.29659 3.07538 10.7186 5.18598 12.8292C7.29659 14.9398 10.7186 14.9398 12.8292 12.8292ZM13.9756 16.5233C10.4782 18.8405 5.71968 18.4583 2.63826 15.3769C-0.879419 11.8592 -0.879419 6.15594 2.63826 2.63826C6.15594 -0.879419 11.8592 -0.879419 15.3769 2.63826C18.4583 5.71968 18.8405 10.4782 16.5233 13.9756L20.4723 17.9246C21.1759 18.6282 21.1759 19.7688 20.4723 20.4723C19.7688 21.1759 18.6282 21.1759 17.9246 20.4723L13.9756 16.5233Z" fill="white"/>
</svg>
